<svg width="272" height="272" viewBox="0 0 272 272" fill="none" xmlns="http://www.w3.org/2000/svg">
<path fill-rule="evenodd" clip-rule="evenodd" d="M83.4926 87.635C88.1846 87.635 91.9926 91.443 91.9926 96.135C91.9926 100.827 88.1846 104.635 83.4926 104.635H72.828C54.536 104.635 39.6666 119.493 39.6666 137.774V193.137C39.6666 211.486 54.5813 226.4 72.93 226.4H199.183C217.453 226.4 232.333 211.52 232.333 193.25V137.898C232.333 119.55 217.407 104.635 199.081 104.635H188.519C183.827 104.635 180.019 100.827 180.019 96.135C180.019 91.443 183.827 87.635 188.519 87.635H199.081C226.791 87.635 249.333 110.188 249.333 137.898V193.25C249.333 220.904 226.825 243.4 199.183 243.4H72.93C45.22 243.4 22.6666 220.858 22.6666 193.137V137.774C22.6666 110.12 45.1633 87.635 72.828 87.635H83.4926ZM136.009 34C140.701 34 144.509 37.808 144.509 42.5L144.5 158.395L163.039 139.785C166.348 136.453 171.72 136.453 175.052 139.763C178.373 143.072 178.384 148.455 175.075 151.787L142.103 184.888C141.781 185.219 141.433 185.524 141.061 185.8L142.027 184.96C141.662 185.33 141.266 185.663 140.845 185.955C140.588 186.132 140.327 186.293 140.057 186.44C139.927 186.511 139.79 186.58 139.652 186.646C139.404 186.763 139.151 186.869 138.891 186.963C138.761 187.009 138.631 187.052 138.5 187.092C138.181 187.191 137.852 187.271 137.517 187.331C137.442 187.344 137.373 187.355 137.304 187.366C137.034 187.408 136.752 187.437 136.466 187.453C136.312 187.461 136.161 187.465 136.009 187.465L135.558 187.431L134.856 187.387C134.806 187.38 134.756 187.373 134.707 187.365L136.009 187.465C135.503 187.465 135 187.42 134.507 187.331C134.166 187.271 133.839 187.192 133.52 187.094C133.392 187.054 133.266 187.012 133.142 186.968C132.882 186.875 132.625 186.768 132.374 186.65C132.222 186.577 132.071 186.5 131.922 186.418C131.712 186.303 131.51 186.181 131.314 186.05C131.18 185.962 131.046 185.867 130.914 185.768C130.59 185.525 130.285 185.259 130 184.974L129.991 184.96L96.943 151.787C93.6337 148.455 93.645 143.072 96.9657 139.763C100.298 136.453 105.67 136.453 108.979 139.785L127.5 158.395L127.509 42.5C127.509 37.808 131.317 34 136.009 34Z" fill="#6540C5"/>
</svg>
