<svg width="40" height="40" viewBox="0 0 40 40" fill="none" xmlns="http://www.w3.org/2000/svg">
<path d="M21.2499 28.7498C21.2499 29.0813 21.1182 29.3993 20.8838 29.6337C20.6493 29.8681 20.3314 29.9998 19.9999 29.9998C19.6683 29.9998 19.3504 29.8681 19.116 29.6337C18.8816 29.3993 18.7499 29.0813 18.7499 28.7498V19.2673L15.8849 22.1348C15.6502 22.3695 15.3318 22.5014 14.9999 22.5014C14.6679 22.5014 14.3496 22.3695 14.1149 22.1348C13.8802 21.9001 13.7483 21.5817 13.7483 21.2498C13.7483 20.9179 13.8802 20.5995 14.1149 20.3648L19.1149 15.3648C19.231 15.2484 19.3689 15.156 19.5208 15.093C19.6726 15.03 19.8355 14.9976 19.9999 14.9976C20.1643 14.9976 20.3271 15.03 20.479 15.093C20.6308 15.156 20.7688 15.2484 20.8849 15.3648L25.8849 20.3648C26.1196 20.5995 26.2514 20.9179 26.2514 21.2498C26.2514 21.5817 26.1196 21.9001 25.8849 22.1348C25.6502 22.3695 25.3318 22.5014 24.9999 22.5014C24.6679 22.5014 24.3496 22.3695 24.1149 22.1348L21.2499 19.2673V28.7498Z" fill="#6540C5"/>
<path d="M35 35V11.25L23.75 0H10C8.67392 0 7.40215 0.526784 6.46447 1.46447C5.52678 2.40215 5 3.67392 5 5V35C5 36.3261 5.52678 37.5979 6.46447 38.5355C7.40215 39.4732 8.67392 40 10 40H30C31.3261 40 32.5979 39.4732 33.5355 38.5355C34.4732 37.5979 35 36.3261 35 35ZM23.75 7.5C23.75 8.49456 24.1451 9.44839 24.8483 10.1517C25.5516 10.8549 26.5054 11.25 27.5 11.25H32.5V35C32.5 35.663 32.2366 36.2989 31.7678 36.7678C31.2989 37.2366 30.663 37.5 30 37.5H10C9.33696 37.5 8.70107 37.2366 8.23223 36.7678C7.76339 36.2989 7.5 35.663 7.5 35V5C7.5 4.33696 7.76339 3.70107 8.23223 3.23223C8.70107 2.76339 9.33696 2.5 10 2.5H23.75V7.5Z" fill="#6540C5"/>
</svg>
